<?xml version="1.0" ?><!DOCTYPE svg  PUBLIC '-//W3C//DTD SVG 1.1//EN'
        'http://www.w3.org/Graphics/SVG/1.1/DTD/svg11.dtd'>
<svg style="enable-background:new 0 0 512 512;" version="1.1" viewBox="0 0 512 512" xml:space="preserve" xmlns="http://www.w3.org/2000/svg" >
    <g id="settings">
        <g>
            <circle cx="256" cy="256" r="253.44"/>
            <g>
                <circle cx="256" cy="251.873" r="104.941" style="fill:#FFFFFF;"/>
        <path d="M371.167,285.355H140.833c-9.618,0-17.416-7.797-17.416-17.416v-23.878     c0-9.618,7.797-17.416,17.416-17.416h230.334c9.618,0,17.416,7.797,17.416,17.416v23.878     C388.583,277.557,380.785,285.355,371.167,285.355z" style="fill:#FFFFFF;"/>
                <path d="M285.354,140.833l0,230.334c0,9.618-7.797,17.416-17.416,17.416l-23.877,0     c-9.619,0-17.416-7.797-17.416-17.416l0-230.334c0-9.618,7.797-17.416,17.416-17.416l23.877,0     C277.557,123.417,285.354,131.215,285.354,140.833z" style="fill:#FFFFFF;"/>
                <path d="M358.192,195.322l-162.871,162.87c-6.801,6.801-17.828,6.801-24.63,0l-16.884-16.884     c-6.801-6.801-6.801-17.828,0-24.63l162.871-162.87c6.801-6.801,17.828-6.801,24.63,0l16.884,16.884     C364.994,177.494,364.994,188.521,358.192,195.322z" style="fill:#FFFFFF;"/>
                <path d="M195.321,153.808l162.871,162.871c6.801,6.801,6.801,17.828,0,24.63l-16.884,16.884     c-6.801,6.801-17.828,6.801-24.63,0L153.808,195.322c-6.801-6.801-6.801-17.828,0-24.63l16.884-16.884     C177.493,147.007,188.52,147.007,195.321,153.808z" style="fill:#FFFFFF;"/>
                <circle cx="256" cy="251.873" r="57.632"/>
            </g>
        </g>
    </g>
    <g id="Layer_1"/></svg>